#N canvas 205 147 552 666 12;
#X declare -lib aoo;
#X floatatom 41 496 5 0 0 0 - - - 0;
#N canvas 496 503 597 371 events 0;
#X obj 37 37 inlet;
#X obj 37 62 print aoo_server;
#X text 190 102 a new client connected to the server;
#X msg 37 103 client_add <id> ...;
#X text 190 123 <id> is the client ID as a hex string \, e.g. "0xA7F3";
#X msg 37 163 client_remove <id>;
#X text 187 163 a client disconnected from the server;
#X text 199 202 a new group has been created on the server;
#X msg 37 243 group_remove <name>;
#X text 188 242 a group has been removed from the server;
#X text 294 284 a user has joined a group;
#X msg 37 203 group_add <name> ...;
#X msg 37 283 group_join <group> <user> <id> ...;
#X text 277 323 a user has left a group;
#X msg 37 323 group_leave <group> <user> <id>;
#X connect 0 0 1 0;
#X restore 143 496 pd events;
#X text 38 582 outlets:;
#X text 51 604 1) number of connected users;
#X text 51 624 2) events;
#X text 37 530 creation arguments:;
#X text 54 552 1) port number;
#X text 37 191 NOTE: If you want to connect clients over the public internet \, your server machine must be publicly accessible and the given port number must be known by all clients., f 64;
#X text 37 317 Each user is identified by its name or unique ID. A single user can join multiple groups., f 49;
#X msg 54 433 relay \$1;
#X obj 54 407 tgl 19 0 empty empty empty 0 -10 0 12 #fcfcfc #000000 #000000 0 1;
#X obj 41 471 aoo_server 8000;
#X msg 41 371 port 8001;
#X text 121 371 set listening port (0 = stop listening);
#X text 36 248 Currently \, this object has no real advantages over the "aooserver" command line program \, but in the future it might gain interactive features for group/user management \, group/user metadata \, custom requests \, etc., f 66;
#X text 126 404 enable/disable server relay (disabled by default);
#X text 126 423 This allows clients to use the AOO server as a relay \, in case one or more peers are behind a symmetric NAT., f 54;
#X text 35 27 [aoo_server]: AOO server;
#X text 39 107 1) group/user management \, so that peers may contact each other by group and user name instead of IP and port., f 62;
#X text 38 147 2) UDP hole punching to establish peer-to-peer connections over the public internet., f 62;
#X text 37 66 Use this object to host an AOO server for a local network or the public internet. It serves two main functions:, f 65;
#X obj 389 30 declare -lib aoo;
#X text 358 606 see also;
#X obj 427 607 aoo_client;
#X text 218 496 <-- events;
#X connect 9 0 11 0;
#X connect 10 0 9 0;
#X connect 11 0 0 0;
#X connect 11 1 1 0;
#X connect 12 0 11 0;
