#N canvas 231 106 578 463 12;
#X text 34 103 NOTE: aoo_send~ does *not* automatically update the format when the input channel count changes \, this must be done explicitly with the [format( message!, f 73;
#X text 200 351 See corresponding section in aoo_receive~-help.pd!;
#X obj 126 249 osc~ 440;
#X obj 211 249 osc~ 220;
#X obj 126 277 *~ 0.25;
#X obj 211 277 *~ 0.25;
#X obj 127 307 snake~ in 2;
#X msg 36 206 add localhost 9999 3;
#X msg 55 274 start;
#X msg 61 305 stop;
#X msg 47 234 remove;
#X obj 36 351 aoo_send~ -m 2 9998 3;
#X text 33 33 In Pd 0.54 and above \, you can use the '-m' flag to enable multichannel mode. In this case \, aoo_send~ has a single multichannel signal inlet and the <channels> creation argument only specifies the initial channel count (before DSP is started)., f 75;
#X text 33 153 Omitting/skipping the channel count in the [format( message only works as expected if it is sent *after* the DSP graph has been updated., f 71;
#X obj 36 378 route ping;
#X obj 36 406 bng 19 250 50 0 empty empty empty 0 -10 0 12 #fcfcfc #000000 #000000;
#X connect 2 0 4 0;
#X connect 3 0 5 0;
#X connect 4 0 6 0;
#X connect 5 0 6 1;
#X connect 6 0 11 0;
#X connect 7 0 11 0;
#X connect 8 0 11 0;
#X connect 9 0 11 0;
#X connect 10 0 11 0;
#X connect 11 0 14 0;
#X connect 14 0 15 0;
