#N canvas 1293 147 514 369 12;
#N canvas 0 50 450 387 output 0;
#X obj 105 188 inlet~;
#X obj 173 191 inlet~;
#X obj 238 100 loadbang;
#X msg 238 124 -100;
#X obj 238 148 s /\$0/master;
#X obj 143 108 nbx 5 14 -100 0 0 0 /\$0/master /\$0/master empty 0 -8 0 10 #fcfcfc #000000 #000000 0 256;
#X obj 201 105 cnv 15 1 1 empty empty dB 0 12 0 14 #fcfcfc #000000 0;
#X obj 105 105 cnv 15 1 1 empty empty Vol: 0 12 0 14 #fcfcfc #000000 0;
#X obj 227 191 r /\$0/master;
#X obj 227 215 + 100;
#X obj 227 239 dbtorms;
#X msg 227 263 \$1 50;
#X obj 227 288 line~;
#X obj 105 322 *~;
#X obj 174 323 *~;
#X obj 104 352 dac~;
#X connect 0 0 13 0;
#X connect 1 0 14 0;
#X connect 2 0 3 0;
#X connect 3 0 4 0;
#X connect 8 0 9 0;
#X connect 9 0 10 0;
#X connect 10 0 11 0;
#X connect 11 0 12 0;
#X connect 12 0 13 1;
#X connect 12 0 14 1;
#X connect 13 0 15 0;
#X connect 14 0 15 1;
#X coords 0 -1 1 1 120 30 2 100 100;
#X restore 45 274 pd output;
#X obj 45 212 aoo_receive~ -m 2 9999 3;
#X msg 45 180 channels \$1;
#X msg 45 147 1;
#X msg 84 147 2;
#X obj 45 244 snake~ out 2;
#X text 35 324 See corresponding section in aoo_send~-help.pd!;
#X text 33 33 In Pd 0.54 and above \, you can use the '-m' flag to enable multichannel mode. In this case \, aoo_receive~ has a single multichannel signal outlet and the <channels> creation arguments specifies the number of channels., f 60;
#X text 32 101 You can dynamically change the number of output channels with the [channels( message. NB: this may trigger a DSP graph update!, f 64;
#X obj 210 239 route ping;
#X obj 210 266 bng 19 250 50 0 empty empty empty 0 -10 0 12 #fcfcfc #000000 #000000;
#X connect 1 0 5 0;
#X connect 1 1 9 0;
#X connect 2 0 1 0;
#X connect 3 0 2 0;
#X connect 4 0 2 0;
#X connect 5 0 0 0;
#X connect 5 1 0 1;
#X connect 9 0 10 0;
