#N canvas 444 405 1460 416 12;
#N canvas 0 50 450 387 output 0;
#X obj 105 188 inlet~;
#X obj 173 191 inlet~;
#X obj 238 100 loadbang;
#X msg 238 124 -100;
#X obj 238 148 s /\$0/master;
#X obj 143 108 nbx 5 14 -100 0 0 0 /\$0/master /\$0/master empty 0 -8 0 10 #fcfcfc #000000 #000000 0 256;
#X obj 201 105 cnv 15 1 1 empty empty dB 0 12 0 14 #fcfcfc #000000 0;
#X obj 105 105 cnv 15 1 1 empty empty Vol: 0 12 0 14 #fcfcfc #000000 0;
#X obj 227 191 r /\$0/master;
#X obj 227 215 + 100;
#X obj 227 239 dbtorms;
#X msg 227 263 \$1 50;
#X obj 227 288 line~;
#X obj 105 322 *~;
#X obj 174 323 *~;
#X obj 104 352 dac~;
#X connect 0 0 13 0;
#X connect 1 0 14 0;
#X connect 2 0 3 0;
#X connect 3 0 4 0;
#X connect 8 0 9 0;
#X connect 9 0 10 0;
#X connect 10 0 11 0;
#X connect 11 0 12 0;
#X connect 12 0 13 1;
#X connect 12 0 14 1;
#X connect 13 0 15 0;
#X connect 14 0 15 1;
#X coords 0 -1 1 1 120 30 2 100 100;
#X restore 641 170 pd output;
#X msg 86 77 remove;
#X msg 91 113 start;
#X msg 151 112 stop;
#X obj 93 168 osc~ 440;
#X obj 165 168 osc~ 440;
#X obj 93 192 *~ 0.1;
#X obj 165 192 *~ 0.1;
#X msg 426 108 sim_packet_loss \$1;
#X obj 430 75 hsl 162 19 0 1 0 0 empty empty empty -2 -10 0 12 #fcfcfc #000000 #000000 0 1;
#X msg 441 173 sim_packet_reorder \$1;
#X floatatom 441 141 9 0 0 0 - - - 0;
#X msg 452 239 sim_packet_jitter \$1;
#X obj 452 212 tgl 19 0 empty empty empty 0 -10 0 12 #fcfcfc #000000 #000000 0 1;
#X msg 639 97 latency \$1;
#X msg 639 36 25;
#X floatatom 639 68 5 0 0 0 - - - 0;
#X msg 676 37 50;
#X msg 714 39 100;
#X msg 753 40 500;
#X msg 790 42 1000;
#X obj 68 237 aoo_send~ 2 1000 1;
#X obj 426 284 aoo_client 1000;
#X obj 639 134 aoo_receive~ 2 1001 1;
#X msg 73 45 add localhost 1001 1;
#X obj 68 293 list split 3;
#X floatatom 106 322 5 0 0 0 - - - 0;
#X obj 106 345 bng 19 250 50 0 empty empty empty 0 -10 0 12 #fcfcfc #000000 #000000;
#X obj 789 214 list split 3;
#X obj 894 216 list split 3;
#X obj 994 218 bng 19 250 50 0 empty empty empty 0 -10 0 12 #fcfcfc #000000 #000000;
#X floatatom 829 241 5 0 0 0 - - - 0;
#X floatatom 935 241 5 0 0 0 - - - 0;
#X obj 829 264 bng 19 250 50 0 empty empty empty 0 -10 0 12 #fcfcfc #000000 #000000;
#X obj 935 264 bng 19 250 50 0 empty empty empty 0 -10 0 12 #fcfcfc #000000 #000000;
#X obj 177 293 bng 19 250 50 0 empty empty empty 0 -10 0 12 #fcfcfc #000000 #000000;
#X obj 427 45 tgl 19 0 empty empty empty 0 -10 0 12 #fcfcfc #000000 #000000 0 1;
#X obj 1160 242 list split 3;
#X obj 1199 272 hradio 19 1 0 3 empty empty empty 0 -10 0 12 #fcfcfc #000000 #000000 0;
#X obj 1160 218 route state;
#X obj 992 276 bng 19 250 50 0 empty empty empty 0 -10 0 12 #ff0400 #000000 #000000;
#X obj 1087 253 bng 19 250 50 0 empty empty empty 0 -10 0 12 #ff8300 #000000 #000000;
#X obj 1198 307 print STATE;
#X obj 992 304 print UNDERRUN;
#X obj 1051 281 print OVERRUN;
#X obj 991 250 list split 3;
#X obj 1046 223 list split 3;
#X obj 789 190 route block_dropped block_resent ping underrun overrun;
#X obj 938 77 list split 3;
#X obj 974 109 print START;
#X obj 1040 79 list split 3;
#X obj 1076 111 print STOP;
#X obj 68 269 route frame_resent ping;
#X msg 834 99 resend \$1;
#X obj 833 72 tgl 19 0 empty empty empty 0 -10 0 12 #fcfcfc #000000 #000000 0 1;
#X msg 261 102 format pcm _ \$1;
#X floatatom 263 73 5 0 0 0 - - - 0;
#X msg 302 42 256;
#X msg 264 41 64;
#X floatatom 259 170 5 0 0 0 - - - 0;
#X msg 256 199 format opus _ \$1;
#X msg 260 138 240;
#X msg 298 139 480;
#X obj 941 49 route start stop latency, f 42;
#X obj 1146 77 list split 3;
#X obj 1182 109 print LATENCY;
#X connect 1 0 21 0;
#X connect 2 0 21 0;
#X connect 3 0 21 0;
#X connect 4 0 6 0;
#X connect 5 0 7 0;
#X connect 6 0 21 0;
#X connect 7 0 21 1;
#X connect 8 0 22 0;
#X connect 9 0 8 0;
#X connect 10 0 22 0;
#X connect 11 0 10 0;
#X connect 12 0 22 0;
#X connect 13 0 12 0;
#X connect 14 0 23 0;
#X connect 15 0 16 0;
#X connect 16 0 14 0;
#X connect 17 0 16 0;
#X connect 18 0 16 0;
#X connect 19 0 16 0;
#X connect 20 0 16 0;
#X connect 21 0 52 0;
#X connect 23 0 0 0;
#X connect 23 1 0 1;
#X connect 23 2 47 0;
#X connect 24 0 21 0;
#X connect 25 1 26 0;
#X connect 26 0 27 0;
#X connect 28 1 31 0;
#X connect 29 1 32 0;
#X connect 31 0 33 0;
#X connect 32 0 34 0;
#X connect 36 0 9 0;
#X connect 37 1 38 0;
#X connect 38 0 42 0;
#X connect 39 0 37 0;
#X connect 39 1 63 0;
#X connect 40 0 43 0;
#X connect 41 0 44 0;
#X connect 45 1 40 0;
#X connect 46 1 41 0;
#X connect 47 0 28 0;
#X connect 47 1 29 0;
#X connect 47 2 30 0;
#X connect 47 3 45 0;
#X connect 47 4 46 0;
#X connect 47 5 39 0;
#X connect 48 1 49 0;
#X connect 50 1 51 0;
#X connect 52 0 25 0;
#X connect 52 1 35 0;
#X connect 53 0 23 0;
#X connect 54 0 53 0;
#X connect 55 0 21 0;
#X connect 56 0 55 0;
#X connect 57 0 56 0;
#X connect 58 0 56 0;
#X connect 59 0 60 0;
#X connect 60 0 21 0;
#X connect 61 0 59 0;
#X connect 62 0 59 0;
#X connect 63 0 48 0;
#X connect 63 1 50 0;
#X connect 63 2 64 0;
#X connect 64 1 65 0;
